<?xml version="1.0"?>
<svg xmlns="http://www.w3.org/2000/svg" xmlns:xlink="http://www.w3.org/1999/xlink" xmlns:svgjs="http://svgjs.com/svgjs" version="1.1" width="512" height="512" x="0" y="0" viewBox="0 0 512.521 512.521" style="enable-background:new 0 0 512 512" xml:space="preserve" class=""><g transform="matrix(-1,0,0,1,512.5206084251404,0)"><g xmlns="http://www.w3.org/2000/svg"><path d="m512.521 352.951v87.88c0 8.35-3.38 15.91-8.86 21.38-5.47 5.48-13.03 8.86-21.38 8.86-4.03 0-7.88-.79-11.4-2.23-11.05-4.5-18.84-15.34-18.84-28.01v-87.88c0-36.2-12.54-69.45-33.53-95.64-28.03-34.99-71.12-57.38-119.49-57.38h60.48c84.581 0 153.02 68.45 153.02 153.02z" fill="#da8834" data-original="#ffe07d" style="" class=""/><path d="m470.881 468.841c-11.05-4.5-18.84-15.34-18.84-28.01v-87.88c0-36.2-12.54-69.45-33.53-95.64 31.16 28 50.74 68.62 50.74 113.85v87.89c0 3.42.571 6.72 1.63 9.79z" fill="#d47533" data-original="#ffd064" style="" class=""/><path d="m415.972 254.218c-26.64-22.499-61.089-36.066-98.732-36.066h54.301c16.997 9.148 32.069 21.427 44.431 36.066z" fill="#7ca1b1" data-original="#7ca1b1" style="" class=""/><path d="m401.731 267.071-183.51 183.51c-16.27 16.27-42.65 16.27-58.92 0l-128.7-128.7-18.21-18.21-.19-.18c-3.61-3.61-6.41-7.71-8.41-12.09-.15-.32-.29-.64-.43-.96s-.27-.65-.41-.97c-.22-.55-.42-1.1-.62-1.66-5.11-14.63-1.82-31.55 9.87-43.25l183.51-183.5 17.51 17.5z" fill="#64b2e7" data-original="#26a6fe" style="" class=""/><path d="m256.731 244.561c-7.78 7.78-19.1 9.87-28.78 6.25-3.55-1.32-6.87-3.4-9.72-6.25-10.63-10.64-10.63-27.87 0-38.5s27.87-10.63 38.5 0c2.85 2.85 4.93 6.17 6.24 9.71 3.631 9.68 1.54 21-6.24 28.79z" fill="#7ca1b1" data-original="#7ca1b1" style="" class=""/><path d="m30.602 261.181c-16.77 16.76-16.77 43.94 0 60.7l-18.21-18.21c-3.67-3.67-6.54-7.83-8.6-12.27-.15-.32-.29-.64-.43-.96s-.27-.65-.41-.97c-.22-.55-.42-1.1-.62-1.66-5.11-14.63-1.82-31.55 9.87-43.25l183.51-183.5 17.51 17.5z" fill="#6fbff9" data-original="#0593fc" style="" class=""/><path d="m237.481 225.311c-2.96 2.95-6.82 4.42-10.7 4.42-3.86 0-7.74-1.47-10.69-4.42l-128.33-128.34-17.25-17.25c-5.91-5.9-5.91-15.48 0-21.39 2.95-2.95 6.82-4.42 10.69-4.42s7.74 1.47 10.69 4.42l145.59 145.59c5.9 5.9 5.9 15.48 0 21.39z" fill="#7ca1b1" data-original="#7ca1b1" style="" class=""/><path d="m109.141 75.581c-5.76-5.76-15.11-5.76-20.88.01l-.5.5c-5.77 5.77-5.77 15.12 0 20.88l-17.25-17.25c-5.91-5.9-5.91-15.48 0-21.39 2.95-2.95 6.82-4.42 10.69-4.42s7.74 1.47 10.69 4.42z" fill="#678d98" data-original="#678d98" style="" class=""/><path d="m262.971 215.771c-9.49-2.22-19.87.36-27.27 7.76s-9.98 17.79-7.75 27.28c-3.55-1.32-6.87-3.4-9.72-6.25-10.63-10.64-10.63-27.87 0-38.5s27.87-10.63 38.5 0c2.851 2.85 4.93 6.17 6.24 9.71z" fill="#678d98" data-original="#678d98" style="" class=""/><path d="m418.991 267.901-16.92 16.92c-3.12 3.12-8.19 3.12-11.31 0l-195.12-195.12c-.03-.03-.06-.06-.09-.1l-17.58-17.58c-3.13-3.12-3.13-8.19 0-11.31l16.91-16.92c3.13-3.12 8.19-3.12 11.32 0l17.67 17.68 195.12 195.12c3.131 3.12 3.131 8.19 0 11.31z" fill="#7ca1b1" data-original="#7ca1b1" style="" class=""/><path d="m223.871 61.471c-3.22-3.22-8.43-3.22-11.65 0l-16.58 16.57c-3.19 3.19-3.22 8.34-.09 11.56l-17.58-17.58c-3.13-3.12-3.13-8.19 0-11.31l16.91-16.92c3.13-3.12 8.19-3.12 11.32 0z" fill="#678d98" data-original="#678d98" style="" class=""/></g></g></svg>
